<svg width="513" height="512" viewBox="0 0 513 512" fill="none" xmlns="http://www.w3.org/2000/svg">
<path d="M239.5 200.321C248.921 190.899 264.197 190.899 273.62 200.321L312.349 239.05C321.771 248.473 321.771 263.749 312.349 273.17L273.62 311.9C264.197 321.323 248.921 321.323 239.5 311.9L200.77 273.17C191.348 263.749 191.348 248.473 200.77 239.05L239.5 200.321Z" fill="#A950FF"/>
<path d="M417.874 200.012C427.127 190.759 442.13 190.759 451.383 200.012L490.724 239.353C499.977 248.606 499.977 263.608 490.724 272.862L451.383 312.202C442.13 321.456 427.127 321.456 417.874 312.202L378.534 272.862C369.28 263.608 369.28 248.606 378.534 239.353L417.874 200.012Z" fill="#A950FF"/>
<path d="M239.812 21.94C249.065 12.6867 264.067 12.6867 273.321 21.94L312.66 61.2801C321.914 70.5329 321.914 85.5363 312.66 94.7891L273.321 134.13C264.067 143.383 249.065 143.383 239.812 134.13L200.471 94.7891C191.218 85.5363 191.218 70.5329 200.471 61.2801L239.812 21.94Z" fill="#E9C1FF"/>
<path d="M223.31 150.014C232.732 159.435 232.732 174.711 223.31 184.134L184.581 222.864C175.158 232.285 159.882 232.285 150.46 222.864L111.731 184.134C102.308 174.711 102.308 159.435 111.731 150.014L150.46 111.284C159.882 101.863 175.158 101.863 184.581 111.284L223.31 150.014Z" fill="#CD88FF"/>
<path d="M134.583 239.352C143.836 248.606 143.836 263.608 134.583 272.862L95.2422 312.202C85.9894 321.456 70.986 321.456 61.7332 312.202L22.3931 272.862C13.1398 263.608 13.1398 248.606 22.3931 239.352L61.7332 200.012C70.986 190.759 85.9894 190.759 95.2422 200.012L134.583 239.352Z" fill="#A950FF"/>
<path d="M401.388 150.014C410.81 159.435 410.81 174.711 401.388 184.134L362.659 222.864C353.236 232.285 337.96 232.285 328.539 222.864L289.809 184.134C280.387 174.711 280.387 159.435 289.809 150.014L328.539 111.284C337.96 101.863 353.236 101.863 362.659 111.284L401.388 150.014Z" fill="#CD88FF"/>
<path d="M294.669 404.371C315.719 425.421 315.719 459.549 294.669 480.599C273.621 501.648 239.493 501.648 218.444 480.599C197.394 459.549 197.394 425.421 218.444 404.371C239.493 383.323 273.621 383.323 294.669 404.371Z" fill="#F62E76"/>
</svg>
